# xmcd
#
# Track frame offsets: 
#        182
#        13452
#        29712
#        46655
#        64015
#        83992
#        96842
#        113237
#        131365
#        146505
#
# Disc length: 2163 seconds
#
# Revision: 5
# Processed by: cddbd v1.5PL3 Copyright (c) Steve Scherf et al.
# Submitted via: ExactAudioCopy v0.95a3
#
DISCID=8708710a
DTITLE=Lila McCann - Complete
DYEAR=2001
DGENRE=Country
TTITLE0=Where It Used To Break
TTITLE1=Come A Little Closer
TTITLE2=Complete
TTITLE3=Mighty Mighty Love
TTITLE4=Whisper The Words
TTITLE5=Like A Rocket
TTITLE6=Is It Just Me
TTITLE7=She Remembers Love
TTITLE8=Lost In Your Love
TTITLE9=Because Of You
EXTD=ID3G: 2
EXTT0=
EXTT1=
EXTT2=
EXTT3=
EXTT4=
EXTT5=
EXTT6=
EXTT7=
EXTT8=
EXTT9=
PLAYORDER=
